<svg width="20" height="18" viewBox="0 0 20 18" fill="none" xmlns="http://www.w3.org/2000/svg">
<path d="M14.659 12.3955C14.4239 12.3955 14.1941 12.4597 13.9987 12.5798C13.8032 12.7 13.6509 12.8708 13.5609 13.0707C13.4709 13.2706 13.4474 13.4905 13.4933 13.7026C13.5391 13.9148 13.6523 14.1097 13.8186 14.2627C13.9848 14.4156 14.1966 14.5198 14.4271 14.562C14.6577 14.6042 14.8967 14.5825 15.1138 14.4998C15.331 14.417 15.5167 14.2768 15.6473 14.0969C15.7779 13.917 15.8476 13.7056 15.8476 13.4893C15.8479 13.3455 15.8174 13.2032 15.7578 13.0703C15.6982 12.9375 15.6106 12.8168 15.5002 12.7152C15.3898 12.6135 15.2586 12.533 15.1142 12.4781C14.9699 12.4233 14.8152 12.3952 14.659 12.3955ZM9.50867 11.6666C10.1356 11.6666 10.7484 11.4955 11.2696 11.175C11.7909 10.8545 12.1972 10.399 12.4371 9.86601C12.677 9.33304 12.7397 8.74657 12.6174 8.18077C12.4951 7.61496 12.1932 7.09524 11.75 6.68732C11.3067 6.2794 10.7419 6.0016 10.127 5.88905C9.51219 5.77651 8.87488 5.83427 8.2957 6.05504C7.71652 6.2758 7.22149 6.64965 6.8732 7.12932C6.52491 7.60898 6.33901 8.17292 6.33901 8.7498C6.33991 9.52313 6.67415 10.2646 7.26838 10.8114C7.86261 11.3582 8.6683 11.6658 9.50867 11.6666ZM9.50867 13.1248C8.56837 13.1248 7.64918 12.8682 6.86734 12.3875C6.0855 11.9068 5.47613 11.2235 5.11629 10.424C4.75645 9.62462 4.6623 8.74495 4.84575 7.89628C5.02919 7.04762 5.48199 6.26807 6.14689 5.65621C6.81179 5.04436 7.65892 4.62768 8.58116 4.45887C9.5034 4.29006 10.4593 4.3767 11.3281 4.70783C12.1968 5.03896 12.9393 5.59972 13.4617 6.31918C13.9841 7.03865 14.263 7.88451 14.263 8.7498C14.263 9.91013 13.7621 11.0229 12.8705 11.8434C11.9789 12.6639 10.7696 13.1248 9.50867 13.1248Z" fill="black"/>
<path d="M13.4703 16.0416C14.5202 16.0387 15.5262 15.6536 16.2685 14.9704C17.0109 14.2873 17.4294 13.3616 17.4325 12.3955V5.10405C17.4294 4.13794 17.0109 3.21221 16.2685 2.52906C15.5262 1.84591 14.5202 1.46084 13.4703 1.45796H5.5468C4.49693 1.46084 3.49095 1.84591 2.74858 2.52906C2.0062 3.21221 1.58775 4.13794 1.58462 5.10405V12.3955C1.58775 13.3616 2.0062 14.2873 2.74858 14.9704C3.49095 15.6536 4.49693 16.0387 5.5468 16.0416H13.4703ZM13.4703 17.4998H5.5468C2.496 17.4998 0 15.2029 0 12.3955V5.10405C0 2.29663 2.496 -0.000244141 5.5468 -0.000244141H13.4703C16.5211 -0.000244141 19.0171 2.29663 19.0171 5.10405V12.3955C19.0171 15.2029 16.5211 17.4998 13.4703 17.4998Z" fill="black"/>
</svg>
