<svg width="20" height="16" viewBox="0 0 20 16" fill="none" xmlns="http://www.w3.org/2000/svg">
<path d="M19.6875 1.86622C18.949 2.1871 18.1676 2.39851 17.3681 2.49376C18.2083 2.00172 18.8402 1.22004 19.1453 0.295319C18.3508 0.759859 17.4831 1.0858 16.5793 1.25919C16.1987 0.860322 15.741 0.543014 15.234 0.326551C14.727 0.110087 14.1812 -0.00101199 13.6299 6.94576e-06C11.3978 6.94576e-06 9.5915 1.78008 9.5915 3.97442C9.58992 4.27964 9.6249 4.58396 9.69568 4.88087C8.09513 4.80583 6.52785 4.39753 5.09413 3.68208C3.66041 2.96664 2.39182 1.9598 1.36951 0.725983C1.01086 1.3306 0.821187 2.02045 0.820312 2.72344C0.820312 4.10157 1.53932 5.31973 2.625 6.0334C1.98176 6.01814 1.35171 5.84789 0.78832 5.53712V5.58633C0.78832 7.51407 2.18285 9.11778 4.02855 9.48282C3.68147 9.57534 3.32381 9.62222 2.96461 9.62227C2.70973 9.62272 2.45543 9.59799 2.20541 9.54844C2.71852 11.1275 4.21189 12.276 5.9809 12.3088C4.54346 13.4166 2.77865 14.0153 0.963867 14.0109C0.641738 14.0105 0.319908 13.9913 0 13.9535C1.84619 15.1324 3.99223 15.756 6.1827 15.75C13.6213 15.75 17.6851 9.692 17.6851 4.4379C17.6851 4.26563 17.6806 4.09337 17.6724 3.9252C18.4612 3.36413 19.1436 2.66689 19.6875 1.86622Z" fill="black"/>
</svg>
